<mxfile host="app.diagrams.net" modified="2023-09-22T11:03:50.864Z" agent="Mozilla/5.0 (Windows NT 10.0; Win64; x64; rv:109.0) Gecko/20100101 Firefox/117.0" etag="SoeprG-BjmDtm0OEdbWn" version="21.6.9" type="device">
  <diagram name="Page-1" id="ukuJDfdp4EGCv94ZXPhs">
    <mxGraphModel dx="1687" dy="878" grid="1" gridSize="10" guides="1" tooltips="1" connect="1" arrows="1" fold="1" page="1" pageScale="1" pageWidth="827" pageHeight="1169" math="0" shadow="0">
      <root>
        <mxCell id="0" />
        <mxCell id="1" parent="0" />
        <mxCell id="HV4VPIVPVvyHfTrcEUZD-127" style="edgeStyle=orthogonalEdgeStyle;rounded=0;orthogonalLoop=1;jettySize=auto;html=1;exitX=0.5;exitY=0;exitDx=0;exitDy=0;entryX=0.75;entryY=1;entryDx=0;entryDy=0;dashed=1;" parent="1" source="HV4VPIVPVvyHfTrcEUZD-105" target="HV4VPIVPVvyHfTrcEUZD-27" edge="1">
          <mxGeometry relative="1" as="geometry">
            <Array as="points">
              <mxPoint x="1400" y="340" />
              <mxPoint x="1052" y="340" />
            </Array>
          </mxGeometry>
        </mxCell>
        <mxCell id="HV4VPIVPVvyHfTrcEUZD-50" style="edgeStyle=orthogonalEdgeStyle;rounded=0;orthogonalLoop=1;jettySize=auto;html=1;exitX=0.338;exitY=1.021;exitDx=0;exitDy=0;entryX=0;entryY=0.5;entryDx=0;entryDy=0;dashed=1;exitPerimeter=0;" parent="1" source="HV4VPIVPVvyHfTrcEUZD-27" target="HV4VPIVPVvyHfTrcEUZD-46" edge="1">
          <mxGeometry relative="1" as="geometry">
            <Array as="points">
              <mxPoint x="991" y="340" />
              <mxPoint x="80" y="340" />
              <mxPoint x="80" y="500" />
            </Array>
          </mxGeometry>
        </mxCell>
        <mxCell id="HV4VPIVPVvyHfTrcEUZD-5" value="Where Is It wiring diagram" style="text;html=1;strokeColor=none;fillColor=none;align=center;verticalAlign=middle;whiteSpace=wrap;rounded=0;fontSize=20;" parent="1" vertex="1">
          <mxGeometry x="190" y="10" width="280" height="30" as="geometry" />
        </mxCell>
        <mxCell id="HV4VPIVPVvyHfTrcEUZD-31" value="Client" style="swimlane;fillColor=#d5e8d4;strokeColor=#82b366;fontSize=16;" parent="1" vertex="1">
          <mxGeometry x="20" y="50" width="1150" height="270" as="geometry" />
        </mxCell>
        <mxCell id="HV4VPIVPVvyHfTrcEUZD-27" value="&lt;font face=&quot;Lucida Console&quot;&gt;SearchInvoker#EVENT&lt;/font&gt;" style="rounded=0;whiteSpace=wrap;html=1;fillColor=#f8cecc;strokeColor=#b85450;" parent="HV4VPIVPVvyHfTrcEUZD-31" vertex="1">
          <mxGeometry x="920" y="100" width="150" height="30" as="geometry" />
        </mxCell>
        <mxCell id="HV4VPIVPVvyHfTrcEUZD-39" value="&lt;div&gt;Where Is It&#39;s&lt;/div&gt;&lt;div&gt;Default Invoker&lt;/div&gt;&lt;div&gt;(asking the server)&lt;br&gt;&lt;/div&gt;" style="rounded=0;whiteSpace=wrap;html=1;fillColor=#e1d5e7;strokeColor=#9673a6;" parent="HV4VPIVPVvyHfTrcEUZD-31" vertex="1">
          <mxGeometry x="935" y="160" width="120" height="50" as="geometry" />
        </mxCell>
        <mxCell id="HV4VPIVPVvyHfTrcEUZD-126" value="Default Search Triggering and Rendering" style="swimlane;whiteSpace=wrap;html=1;fillColor=#e1d5e7;strokeColor=#9673a6;" parent="HV4VPIVPVvyHfTrcEUZD-31" vertex="1">
          <mxGeometry x="10" y="31" width="890" height="229" as="geometry" />
        </mxCell>
        <mxCell id="HV4VPIVPVvyHfTrcEUZD-113" style="edgeStyle=orthogonalEdgeStyle;rounded=0;orthogonalLoop=1;jettySize=auto;html=1;exitX=0.111;exitY=1.046;exitDx=0;exitDy=0;entryX=0.5;entryY=0;entryDx=0;entryDy=0;exitPerimeter=0;" parent="HV4VPIVPVvyHfTrcEUZD-126" target="HV4VPIVPVvyHfTrcEUZD-112" edge="1">
          <mxGeometry relative="1" as="geometry">
            <mxPoint x="597.28" y="101.75999999999993" as="sourcePoint" />
            <Array as="points">
              <mxPoint x="597.75" y="99.92000000000002" />
            </Array>
          </mxGeometry>
        </mxCell>
        <mxCell id="HV4VPIVPVvyHfTrcEUZD-19" value="&lt;div&gt;Add criteria to the search request&lt;br&gt;&lt;/div&gt;" style="rounded=0;whiteSpace=wrap;html=1;" parent="HV4VPIVPVvyHfTrcEUZD-126" vertex="1">
          <mxGeometry x="481.75" y="59" width="230" height="40" as="geometry" />
        </mxCell>
        <mxCell id="HV4VPIVPVvyHfTrcEUZD-30" value="" style="edgeStyle=orthogonalEdgeStyle;rounded=0;orthogonalLoop=1;jettySize=auto;html=1;exitX=1;exitY=0.5;exitDx=0;exitDy=0;entryX=0;entryY=0.5;entryDx=0;entryDy=0;" parent="HV4VPIVPVvyHfTrcEUZD-126" source="HV4VPIVPVvyHfTrcEUZD-19" target="HV4VPIVPVvyHfTrcEUZD-29" edge="1">
          <mxGeometry relative="1" as="geometry">
            <mxPoint x="712.25" y="79" as="sourcePoint" />
            <mxPoint x="858.25" y="79" as="targetPoint" />
          </mxGeometry>
        </mxCell>
        <mxCell id="HV4VPIVPVvyHfTrcEUZD-29" value="&lt;font face=&quot;Lucida Console&quot;&gt;SearchRequest&lt;/font&gt;" style="rounded=0;whiteSpace=wrap;html=1;" parent="HV4VPIVPVvyHfTrcEUZD-126" vertex="1">
          <mxGeometry x="728.25" y="69" width="100" height="20" as="geometry" />
        </mxCell>
        <mxCell id="HV4VPIVPVvyHfTrcEUZD-1" value="&lt;div&gt;Keybind Pressed&lt;/div&gt;&lt;div&gt;(Default: &lt;b&gt;Y&lt;/b&gt;)&lt;br&gt;&lt;/div&gt;" style="rounded=1;whiteSpace=wrap;html=1;fillColor=#dae8fc;strokeColor=#6c8ebf;" parent="HV4VPIVPVvyHfTrcEUZD-126" vertex="1">
          <mxGeometry x="41.75" y="59" width="110" height="40" as="geometry" />
        </mxCell>
        <mxCell id="HV4VPIVPVvyHfTrcEUZD-6" value="&lt;div&gt;Should&lt;/div&gt;&lt;div&gt;Ignore?&lt;br&gt;&lt;/div&gt;" style="rhombus;whiteSpace=wrap;html=1;fillColor=#d5e8d4;strokeColor=#82b366;" parent="HV4VPIVPVvyHfTrcEUZD-126" vertex="1">
          <mxGeometry x="181.75" y="39" width="80" height="80" as="geometry" />
        </mxCell>
        <mxCell id="HV4VPIVPVvyHfTrcEUZD-21" style="edgeStyle=orthogonalEdgeStyle;rounded=0;orthogonalLoop=1;jettySize=auto;html=1;exitX=1;exitY=0.5;exitDx=0;exitDy=0;entryX=0;entryY=0.5;entryDx=0;entryDy=0;" parent="HV4VPIVPVvyHfTrcEUZD-126" source="HV4VPIVPVvyHfTrcEUZD-115" target="HV4VPIVPVvyHfTrcEUZD-19" edge="1">
          <mxGeometry relative="1" as="geometry" />
        </mxCell>
        <mxCell id="HV4VPIVPVvyHfTrcEUZD-7" style="edgeStyle=orthogonalEdgeStyle;rounded=0;orthogonalLoop=1;jettySize=auto;html=1;exitX=1;exitY=0.5;exitDx=0;exitDy=0;entryX=0;entryY=0.5;entryDx=0;entryDy=0;" parent="HV4VPIVPVvyHfTrcEUZD-126" source="HV4VPIVPVvyHfTrcEUZD-1" target="HV4VPIVPVvyHfTrcEUZD-6" edge="1">
          <mxGeometry relative="1" as="geometry" />
        </mxCell>
        <mxCell id="HV4VPIVPVvyHfTrcEUZD-9" value="&lt;font face=&quot;Lucida Console&quot;&gt;ShouldIgnoreKey#EVENT&lt;/font&gt;" style="rounded=0;whiteSpace=wrap;html=1;fillColor=#f8cecc;strokeColor=#b85450;" parent="HV4VPIVPVvyHfTrcEUZD-126" vertex="1">
          <mxGeometry x="11.75" y="129.92" width="160" height="30" as="geometry" />
        </mxCell>
        <mxCell id="HV4VPIVPVvyHfTrcEUZD-10" style="edgeStyle=orthogonalEdgeStyle;rounded=0;orthogonalLoop=1;jettySize=auto;html=1;exitX=1;exitY=0.5;exitDx=0;exitDy=0;entryX=0.5;entryY=1;entryDx=0;entryDy=0;" parent="HV4VPIVPVvyHfTrcEUZD-126" source="HV4VPIVPVvyHfTrcEUZD-9" target="HV4VPIVPVvyHfTrcEUZD-6" edge="1">
          <mxGeometry relative="1" as="geometry" />
        </mxCell>
        <mxCell id="HV4VPIVPVvyHfTrcEUZD-133" style="edgeStyle=orthogonalEdgeStyle;rounded=0;orthogonalLoop=1;jettySize=auto;html=1;exitX=0;exitY=0.5;exitDx=0;exitDy=0;entryX=0.25;entryY=1;entryDx=0;entryDy=0;" parent="HV4VPIVPVvyHfTrcEUZD-126" source="HV4VPIVPVvyHfTrcEUZD-11" target="HV4VPIVPVvyHfTrcEUZD-9" edge="1">
          <mxGeometry relative="1" as="geometry" />
        </mxCell>
        <mxCell id="HV4VPIVPVvyHfTrcEUZD-11" value="&lt;div&gt;Fabric ObjectShare:&lt;/div&gt;&lt;div&gt;&lt;font face=&quot;Lucida Console&quot;&gt;whereisit:shouldignorekey&lt;/font&gt;&lt;/div&gt;&lt;div&gt;&lt;font face=&quot;Lucida Console&quot;&gt;Supplier&amp;lt;Boolean&amp;gt;&lt;br&gt;&lt;/font&gt;&lt;/div&gt;" style="rounded=0;whiteSpace=wrap;html=1;fillColor=#f8cecc;strokeColor=#b85450;" parent="HV4VPIVPVvyHfTrcEUZD-126" vertex="1">
          <mxGeometry x="121.75" y="169.92" width="200" height="50" as="geometry" />
        </mxCell>
        <mxCell id="HV4VPIVPVvyHfTrcEUZD-114" style="edgeStyle=orthogonalEdgeStyle;rounded=0;orthogonalLoop=1;jettySize=auto;html=1;exitX=0.558;exitY=0.04;exitDx=0;exitDy=0;entryX=0.162;entryY=0.977;entryDx=0;entryDy=0;entryPerimeter=0;exitPerimeter=0;" parent="HV4VPIVPVvyHfTrcEUZD-126" source="HV4VPIVPVvyHfTrcEUZD-112" edge="1">
          <mxGeometry relative="1" as="geometry">
            <mxPoint x="609.01" y="99.00000000000006" as="targetPoint" />
          </mxGeometry>
        </mxCell>
        <mxCell id="HV4VPIVPVvyHfTrcEUZD-112" value="&lt;div&gt;&lt;font face=&quot;Lucida Console&quot;&gt;SearchRequestPopulator#EVENT&lt;/font&gt;&lt;/div&gt;" style="rounded=0;whiteSpace=wrap;html=1;fillColor=#f8cecc;strokeColor=#b85450;" parent="HV4VPIVPVvyHfTrcEUZD-126" vertex="1">
          <mxGeometry x="491.75" y="119.92000000000002" width="210" height="20" as="geometry" />
        </mxCell>
        <mxCell id="HV4VPIVPVvyHfTrcEUZD-120" style="edgeStyle=orthogonalEdgeStyle;rounded=0;orthogonalLoop=1;jettySize=auto;html=1;exitX=0.558;exitY=0.16;exitDx=0;exitDy=0;entryX=0.558;entryY=1.08;entryDx=0;entryDy=0;entryPerimeter=0;exitPerimeter=0;" parent="HV4VPIVPVvyHfTrcEUZD-126" source="HV4VPIVPVvyHfTrcEUZD-117" target="HV4VPIVPVvyHfTrcEUZD-112" edge="1">
          <mxGeometry relative="1" as="geometry">
            <Array as="points" />
          </mxGeometry>
        </mxCell>
        <mxCell id="HV4VPIVPVvyHfTrcEUZD-117" value="&lt;font face=&quot;Lucida Console&quot;&gt;OverlayStackBehavior#Event&lt;/font&gt;" style="rounded=0;whiteSpace=wrap;html=1;fillColor=#f8cecc;strokeColor=#b85450;" parent="HV4VPIVPVvyHfTrcEUZD-126" vertex="1">
          <mxGeometry x="491.75" y="199.92" width="210" height="20" as="geometry" />
        </mxCell>
        <mxCell id="HV4VPIVPVvyHfTrcEUZD-119" style="edgeStyle=orthogonalEdgeStyle;rounded=0;orthogonalLoop=1;jettySize=auto;html=1;exitX=0.5;exitY=1;exitDx=0;exitDy=0;entryX=0.5;entryY=0;entryDx=0;entryDy=0;" parent="HV4VPIVPVvyHfTrcEUZD-126" source="HV4VPIVPVvyHfTrcEUZD-112" target="HV4VPIVPVvyHfTrcEUZD-117" edge="1">
          <mxGeometry relative="1" as="geometry" />
        </mxCell>
        <mxCell id="HV4VPIVPVvyHfTrcEUZD-115" value="&lt;p&gt;&lt;font face=&quot;Lucida Console&quot;&gt;ItemStack&lt;/font&gt;&lt;/p&gt;" style="rounded=0;whiteSpace=wrap;html=1;" parent="HV4VPIVPVvyHfTrcEUZD-126" vertex="1">
          <mxGeometry x="385.75" y="69" width="80" height="20" as="geometry" />
        </mxCell>
        <mxCell id="HV4VPIVPVvyHfTrcEUZD-118" value="" style="edgeStyle=orthogonalEdgeStyle;rounded=0;orthogonalLoop=1;jettySize=auto;html=1;exitX=1;exitY=0.5;exitDx=0;exitDy=0;entryX=0;entryY=0.5;entryDx=0;entryDy=0;" parent="HV4VPIVPVvyHfTrcEUZD-126" source="HV4VPIVPVvyHfTrcEUZD-6" target="HV4VPIVPVvyHfTrcEUZD-115" edge="1">
          <mxGeometry relative="1" as="geometry">
            <mxPoint x="281.75" y="129" as="sourcePoint" />
            <mxPoint x="501.75" y="129" as="targetPoint" />
          </mxGeometry>
        </mxCell>
        <mxCell id="HV4VPIVPVvyHfTrcEUZD-23" value="All return &lt;font face=&quot;Lucida Console&quot;&gt;false&lt;/font&gt;" style="rounded=0;whiteSpace=wrap;html=1;fillColor=#d5e8d4;strokeColor=#82b366;" parent="HV4VPIVPVvyHfTrcEUZD-126" vertex="1">
          <mxGeometry x="271.75" y="69" width="100" height="20" as="geometry" />
        </mxCell>
        <mxCell id="HV4VPIVPVvyHfTrcEUZD-121" value="From a recipe viewer? (EMI/JEI/REI)" style="rounded=0;whiteSpace=wrap;html=1;fillColor=#d5e8d4;strokeColor=#82b366;" parent="HV4VPIVPVvyHfTrcEUZD-126" vertex="1">
          <mxGeometry x="541.75" y="150" width="130" height="40" as="geometry" />
        </mxCell>
        <mxCell id="HV4VPIVPVvyHfTrcEUZD-129" style="edgeStyle=orthogonalEdgeStyle;rounded=0;orthogonalLoop=1;jettySize=auto;html=1;exitX=1;exitY=0.5;exitDx=0;exitDy=0;entryX=-0.001;entryY=0.349;entryDx=0;entryDy=0;entryPerimeter=0;" parent="HV4VPIVPVvyHfTrcEUZD-31" source="HV4VPIVPVvyHfTrcEUZD-29" target="HV4VPIVPVvyHfTrcEUZD-27" edge="1">
          <mxGeometry relative="1" as="geometry" />
        </mxCell>
        <mxCell id="cRwkyWQdQ7aA2Lo0Twnz-2" value="" style="edgeStyle=orthogonalEdgeStyle;rounded=0;orthogonalLoop=1;jettySize=auto;html=1;exitX=0;exitY=0.75;exitDx=0;exitDy=0;entryX=0.5;entryY=0;entryDx=0;entryDy=0;" edge="1" parent="HV4VPIVPVvyHfTrcEUZD-31" source="HV4VPIVPVvyHfTrcEUZD-27" target="HV4VPIVPVvyHfTrcEUZD-131">
          <mxGeometry relative="1" as="geometry">
            <mxPoint x="940" y="173" as="sourcePoint" />
            <mxPoint x="781" y="251" as="targetPoint" />
          </mxGeometry>
        </mxCell>
        <mxCell id="cRwkyWQdQ7aA2Lo0Twnz-4" style="edgeStyle=orthogonalEdgeStyle;rounded=0;orthogonalLoop=1;jettySize=auto;html=1;exitX=0.5;exitY=1;exitDx=0;exitDy=0;entryX=0.5;entryY=0;entryDx=0;entryDy=0;" edge="1" parent="HV4VPIVPVvyHfTrcEUZD-31" source="HV4VPIVPVvyHfTrcEUZD-131" target="cRwkyWQdQ7aA2Lo0Twnz-1">
          <mxGeometry relative="1" as="geometry" />
        </mxCell>
        <mxCell id="HV4VPIVPVvyHfTrcEUZD-131" value="&lt;div&gt;&lt;font face=&quot;Lucida Console&quot;&gt;Collection&amp;lt;SearchResult&amp;gt;&lt;/font&gt;&lt;/div&gt;" style="rounded=0;whiteSpace=wrap;html=1;" parent="HV4VPIVPVvyHfTrcEUZD-31" vertex="1">
          <mxGeometry x="720" y="160" width="175" height="20" as="geometry" />
        </mxCell>
        <mxCell id="cRwkyWQdQ7aA2Lo0Twnz-1" value="&lt;font face=&quot;Lucida Console&quot;&gt;OnResult#EVENT&lt;/font&gt;" style="rounded=0;whiteSpace=wrap;html=1;fillColor=#f8cecc;strokeColor=#b85450;" vertex="1" parent="HV4VPIVPVvyHfTrcEUZD-31">
          <mxGeometry x="730" y="201" width="141.75" height="20" as="geometry" />
        </mxCell>
        <mxCell id="HV4VPIVPVvyHfTrcEUZD-33" value="Server" style="swimlane;fontSize=16;fillColor=#dae8fc;strokeColor=#6c8ebf;" parent="1" vertex="1">
          <mxGeometry x="20" y="360" width="1430" height="340" as="geometry" />
        </mxCell>
        <mxCell id="HV4VPIVPVvyHfTrcEUZD-36" value="For Each Block Surrounding the Player" style="swimlane;movable=1;resizable=1;rotatable=1;deletable=1;editable=1;locked=0;connectable=1;fillColor=#fff2cc;strokeColor=#d6b656;" parent="HV4VPIVPVvyHfTrcEUZD-33" vertex="1">
          <mxGeometry x="120" y="30" width="1060" height="300" as="geometry" />
        </mxCell>
        <mxCell id="HV4VPIVPVvyHfTrcEUZD-66" style="edgeStyle=orthogonalEdgeStyle;rounded=0;orthogonalLoop=1;jettySize=auto;html=1;exitX=0;exitY=0.5;exitDx=0;exitDy=0;entryX=0.5;entryY=1;entryDx=0;entryDy=0;" parent="HV4VPIVPVvyHfTrcEUZD-36" source="HV4VPIVPVvyHfTrcEUZD-42" target="HV4VPIVPVvyHfTrcEUZD-46" edge="1">
          <mxGeometry relative="1" as="geometry" />
        </mxCell>
        <mxCell id="HV4VPIVPVvyHfTrcEUZD-97" style="edgeStyle=orthogonalEdgeStyle;rounded=0;orthogonalLoop=1;jettySize=auto;html=1;exitX=0.5;exitY=1;exitDx=0;exitDy=0;entryX=0;entryY=0.75;entryDx=0;entryDy=0;" parent="HV4VPIVPVvyHfTrcEUZD-36" source="HV4VPIVPVvyHfTrcEUZD-42" target="HV4VPIVPVvyHfTrcEUZD-84" edge="1">
          <mxGeometry relative="1" as="geometry">
            <Array as="points">
              <mxPoint x="265" y="290" />
              <mxPoint x="770" y="290" />
              <mxPoint x="770" y="125" />
            </Array>
          </mxGeometry>
        </mxCell>
        <mxCell id="HV4VPIVPVvyHfTrcEUZD-42" value="&lt;div&gt;Get connected blocks&lt;br&gt;&lt;/div&gt;&lt;div&gt;&lt;font face=&quot;Lucida Console&quot;&gt;ConnectedBlocksGrabber#EVENT&lt;/font&gt;&lt;/div&gt;" style="rounded=0;whiteSpace=wrap;html=1;fillColor=#f8cecc;strokeColor=#b85450;" parent="HV4VPIVPVvyHfTrcEUZD-36" vertex="1">
          <mxGeometry x="160" y="150" width="210" height="40" as="geometry" />
        </mxCell>
        <mxCell id="HV4VPIVPVvyHfTrcEUZD-46" value="&lt;div&gt;Already&lt;/div&gt;&lt;div&gt;Checked?&lt;br&gt;&lt;/div&gt;" style="rhombus;whiteSpace=wrap;html=1;fillColor=#d5e8d4;strokeColor=#82b366;" parent="HV4VPIVPVvyHfTrcEUZD-36" vertex="1">
          <mxGeometry x="30" y="70" width="84.21" height="80" as="geometry" />
        </mxCell>
        <mxCell id="HV4VPIVPVvyHfTrcEUZD-70" style="edgeStyle=orthogonalEdgeStyle;rounded=0;orthogonalLoop=1;jettySize=auto;html=1;exitX=1;exitY=0.5;exitDx=0;exitDy=0;entryX=0;entryY=0.5;entryDx=0;entryDy=0;" parent="HV4VPIVPVvyHfTrcEUZD-36" source="HV4VPIVPVvyHfTrcEUZD-54" target="HV4VPIVPVvyHfTrcEUZD-69" edge="1">
          <mxGeometry relative="1" as="geometry" />
        </mxCell>
        <mxCell id="HV4VPIVPVvyHfTrcEUZD-54" value="&lt;div&gt;Get items from block&lt;/div&gt;&lt;div&gt;&lt;font face=&quot;Lucida Console&quot;&gt;BlockSearcher#EVENT&lt;/font&gt;&lt;br&gt;&lt;/div&gt;" style="rounded=0;whiteSpace=wrap;html=1;fillColor=#f8cecc;strokeColor=#b85450;" parent="HV4VPIVPVvyHfTrcEUZD-36" vertex="1">
          <mxGeometry x="290" y="90" width="160" height="40" as="geometry" />
        </mxCell>
        <mxCell id="HV4VPIVPVvyHfTrcEUZD-62" value="" style="edgeStyle=orthogonalEdgeStyle;rounded=0;orthogonalLoop=1;jettySize=auto;html=1;exitX=1;exitY=0.5;exitDx=0;exitDy=0;entryX=0;entryY=0.5;entryDx=0;entryDy=0;" parent="HV4VPIVPVvyHfTrcEUZD-36" source="HV4VPIVPVvyHfTrcEUZD-46" target="HV4VPIVPVvyHfTrcEUZD-56" edge="1">
          <mxGeometry relative="1" as="geometry">
            <mxPoint x="254" y="540" as="sourcePoint" />
            <mxPoint x="308" y="540" as="targetPoint" />
          </mxGeometry>
        </mxCell>
        <mxCell id="HV4VPIVPVvyHfTrcEUZD-67" style="edgeStyle=orthogonalEdgeStyle;rounded=0;orthogonalLoop=1;jettySize=auto;html=1;exitX=1;exitY=0.5;exitDx=0;exitDy=0;entryX=0;entryY=0.5;entryDx=0;entryDy=0;" parent="HV4VPIVPVvyHfTrcEUZD-36" source="HV4VPIVPVvyHfTrcEUZD-56" target="HV4VPIVPVvyHfTrcEUZD-54" edge="1">
          <mxGeometry relative="1" as="geometry" />
        </mxCell>
        <mxCell id="HV4VPIVPVvyHfTrcEUZD-107" style="edgeStyle=orthogonalEdgeStyle;rounded=0;orthogonalLoop=1;jettySize=auto;html=1;exitX=1;exitY=0.75;exitDx=0;exitDy=0;entryX=0.5;entryY=0;entryDx=0;entryDy=0;" parent="HV4VPIVPVvyHfTrcEUZD-36" source="HV4VPIVPVvyHfTrcEUZD-56" target="HV4VPIVPVvyHfTrcEUZD-42" edge="1">
          <mxGeometry relative="1" as="geometry" />
        </mxCell>
        <mxCell id="HV4VPIVPVvyHfTrcEUZD-108" style="edgeStyle=orthogonalEdgeStyle;rounded=0;orthogonalLoop=1;jettySize=auto;html=1;exitX=1;exitY=0.25;exitDx=0;exitDy=0;entryX=0.5;entryY=0;entryDx=0;entryDy=0;" parent="HV4VPIVPVvyHfTrcEUZD-36" source="HV4VPIVPVvyHfTrcEUZD-56" target="HV4VPIVPVvyHfTrcEUZD-99" edge="1">
          <mxGeometry relative="1" as="geometry">
            <Array as="points">
              <mxPoint x="270" y="105" />
              <mxPoint x="270" y="50" />
              <mxPoint x="830" y="50" />
            </Array>
          </mxGeometry>
        </mxCell>
        <mxCell id="HV4VPIVPVvyHfTrcEUZD-56" value="No" style="rounded=0;whiteSpace=wrap;html=1;fillColor=#d5e8d4;strokeColor=#82b366;" parent="HV4VPIVPVvyHfTrcEUZD-36" vertex="1">
          <mxGeometry x="130" y="100" width="30" height="20" as="geometry" />
        </mxCell>
        <mxCell id="HV4VPIVPVvyHfTrcEUZD-68" value="For Each ItemStack" style="swimlane;whiteSpace=wrap;html=1;fillColor=#ffe6cc;strokeColor=#d79b00;" parent="HV4VPIVPVvyHfTrcEUZD-36" vertex="1">
          <mxGeometry x="490" y="60" width="270" height="220" as="geometry" />
        </mxCell>
        <mxCell id="HV4VPIVPVvyHfTrcEUZD-91" style="edgeStyle=orthogonalEdgeStyle;rounded=0;orthogonalLoop=1;jettySize=auto;html=1;exitX=0.5;exitY=1;exitDx=0;exitDy=0;entryX=0.638;entryY=0.093;entryDx=0;entryDy=0;entryPerimeter=0;" parent="HV4VPIVPVvyHfTrcEUZD-68" source="HV4VPIVPVvyHfTrcEUZD-72" target="HV4VPIVPVvyHfTrcEUZD-71" edge="1">
          <mxGeometry relative="1" as="geometry" />
        </mxCell>
        <mxCell id="HV4VPIVPVvyHfTrcEUZD-93" style="edgeStyle=orthogonalEdgeStyle;rounded=0;orthogonalLoop=1;jettySize=auto;html=1;exitX=0.5;exitY=1;exitDx=0;exitDy=0;entryX=0.5;entryY=0;entryDx=0;entryDy=0;" parent="HV4VPIVPVvyHfTrcEUZD-68" source="HV4VPIVPVvyHfTrcEUZD-69" target="HV4VPIVPVvyHfTrcEUZD-72" edge="1">
          <mxGeometry relative="1" as="geometry" />
        </mxCell>
        <mxCell id="HV4VPIVPVvyHfTrcEUZD-69" value="&lt;div&gt;Matches&lt;/div&gt;&lt;div&gt;Request?&lt;br&gt;&lt;/div&gt;" style="rhombus;whiteSpace=wrap;html=1;fillColor=#d5e8d4;strokeColor=#82b366;" parent="HV4VPIVPVvyHfTrcEUZD-68" vertex="1">
          <mxGeometry x="140" y="40" width="80" height="80" as="geometry" />
        </mxCell>
        <mxCell id="HV4VPIVPVvyHfTrcEUZD-81" style="edgeStyle=orthogonalEdgeStyle;rounded=0;orthogonalLoop=1;jettySize=auto;html=1;exitX=0.5;exitY=0;exitDx=0;exitDy=0;" parent="HV4VPIVPVvyHfTrcEUZD-68" source="HV4VPIVPVvyHfTrcEUZD-71" edge="1">
          <mxGeometry relative="1" as="geometry">
            <mxPoint x="-20" y="50" as="targetPoint" />
            <Array as="points">
              <mxPoint x="148" y="130" />
              <mxPoint x="-20" y="130" />
            </Array>
          </mxGeometry>
        </mxCell>
        <mxCell id="HV4VPIVPVvyHfTrcEUZD-71" value="&lt;div&gt;Get nested items&lt;/div&gt;&lt;div&gt;&lt;font face=&quot;Lucida Console&quot;&gt;NestedItemStackSearcher#EVENT&lt;/font&gt;&lt;br&gt;&lt;/div&gt;" style="rounded=0;whiteSpace=wrap;html=1;fillColor=#f8cecc;strokeColor=#b85450;" parent="HV4VPIVPVvyHfTrcEUZD-68" vertex="1">
          <mxGeometry x="37" y="170" width="223" height="40" as="geometry" />
        </mxCell>
        <mxCell id="HV4VPIVPVvyHfTrcEUZD-82" value="&lt;div&gt;Nested ItemStacks&lt;/div&gt;&lt;div&gt;Not checked &amp;gt;1 layers deep&lt;br&gt;&lt;/div&gt;" style="rounded=0;whiteSpace=wrap;html=1;" parent="HV4VPIVPVvyHfTrcEUZD-68" vertex="1">
          <mxGeometry x="10" y="100" width="130" height="50" as="geometry" />
        </mxCell>
        <mxCell id="HV4VPIVPVvyHfTrcEUZD-72" value="No" style="rounded=0;whiteSpace=wrap;html=1;fillColor=#d5e8d4;strokeColor=#82b366;" parent="HV4VPIVPVvyHfTrcEUZD-68" vertex="1">
          <mxGeometry x="165" y="130" width="30" height="20" as="geometry" />
        </mxCell>
        <mxCell id="HV4VPIVPVvyHfTrcEUZD-84" value="&lt;div&gt;Create Search&lt;/div&gt;&lt;div&gt;Result&lt;br&gt;&lt;/div&gt;" style="rounded=0;whiteSpace=wrap;html=1;" parent="HV4VPIVPVvyHfTrcEUZD-36" vertex="1">
          <mxGeometry x="910" y="80" width="120" height="60" as="geometry" />
        </mxCell>
        <mxCell id="HV4VPIVPVvyHfTrcEUZD-86" style="edgeStyle=orthogonalEdgeStyle;rounded=0;orthogonalLoop=1;jettySize=auto;html=1;exitX=1;exitY=0.5;exitDx=0;exitDy=0;entryX=0;entryY=0.5;entryDx=0;entryDy=0;" parent="HV4VPIVPVvyHfTrcEUZD-36" source="HV4VPIVPVvyHfTrcEUZD-94" target="HV4VPIVPVvyHfTrcEUZD-84" edge="1">
          <mxGeometry relative="1" as="geometry" />
        </mxCell>
        <mxCell id="HV4VPIVPVvyHfTrcEUZD-98" style="edgeStyle=orthogonalEdgeStyle;rounded=0;orthogonalLoop=1;jettySize=auto;html=1;exitX=0.5;exitY=0;exitDx=0;exitDy=0;entryX=0;entryY=0.5;entryDx=0;entryDy=0;" parent="HV4VPIVPVvyHfTrcEUZD-36" source="HV4VPIVPVvyHfTrcEUZD-87" target="HV4VPIVPVvyHfTrcEUZD-94" edge="1">
          <mxGeometry relative="1" as="geometry" />
        </mxCell>
        <mxCell id="HV4VPIVPVvyHfTrcEUZD-87" value="Yes" style="rounded=0;whiteSpace=wrap;html=1;fillColor=#d5e8d4;strokeColor=#82b366;" parent="HV4VPIVPVvyHfTrcEUZD-36" vertex="1">
          <mxGeometry x="725" y="130" width="30" height="20" as="geometry" />
        </mxCell>
        <mxCell id="HV4VPIVPVvyHfTrcEUZD-90" value="" style="edgeStyle=orthogonalEdgeStyle;rounded=0;orthogonalLoop=1;jettySize=auto;html=1;exitX=1;exitY=0.5;exitDx=0;exitDy=0;entryX=0;entryY=0.5;entryDx=0;entryDy=0;" parent="HV4VPIVPVvyHfTrcEUZD-36" source="HV4VPIVPVvyHfTrcEUZD-69" target="HV4VPIVPVvyHfTrcEUZD-87" edge="1">
          <mxGeometry relative="1" as="geometry">
            <mxPoint x="865" y="530" as="sourcePoint" />
            <mxPoint x="1050" y="530" as="targetPoint" />
          </mxGeometry>
        </mxCell>
        <mxCell id="HV4VPIVPVvyHfTrcEUZD-94" value="Matching Item" style="rounded=0;whiteSpace=wrap;html=1;" parent="HV4VPIVPVvyHfTrcEUZD-36" vertex="1">
          <mxGeometry x="790" y="100" width="80" height="20" as="geometry" />
        </mxCell>
        <mxCell id="HV4VPIVPVvyHfTrcEUZD-100" style="edgeStyle=orthogonalEdgeStyle;rounded=0;orthogonalLoop=1;jettySize=auto;html=1;exitX=1;exitY=0.25;exitDx=0;exitDy=0;entryX=0;entryY=0.25;entryDx=0;entryDy=0;" parent="HV4VPIVPVvyHfTrcEUZD-36" source="HV4VPIVPVvyHfTrcEUZD-99" target="HV4VPIVPVvyHfTrcEUZD-84" edge="1">
          <mxGeometry relative="1" as="geometry">
            <Array as="points">
              <mxPoint x="890" y="75" />
              <mxPoint x="890" y="95" />
            </Array>
          </mxGeometry>
        </mxCell>
        <mxCell id="HV4VPIVPVvyHfTrcEUZD-99" value="Get Block Name" style="rounded=0;whiteSpace=wrap;html=1;" parent="HV4VPIVPVvyHfTrcEUZD-36" vertex="1">
          <mxGeometry x="775" y="70" width="110" height="20" as="geometry" />
        </mxCell>
        <mxCell id="HV4VPIVPVvyHfTrcEUZD-38" value="&lt;font face=&quot;Lucida Console&quot;&gt;SearchRequest&lt;/font&gt;" style="rounded=0;whiteSpace=wrap;html=1;" parent="HV4VPIVPVvyHfTrcEUZD-33" vertex="1">
          <mxGeometry x="10" y="30" width="100" height="20" as="geometry" />
        </mxCell>
        <mxCell id="HV4VPIVPVvyHfTrcEUZD-103" style="edgeStyle=orthogonalEdgeStyle;rounded=0;orthogonalLoop=1;jettySize=auto;html=1;exitX=1;exitY=0.5;exitDx=0;exitDy=0;entryX=0;entryY=0.5;entryDx=0;entryDy=0;" parent="HV4VPIVPVvyHfTrcEUZD-33" source="HV4VPIVPVvyHfTrcEUZD-83" target="HV4VPIVPVvyHfTrcEUZD-102" edge="1">
          <mxGeometry relative="1" as="geometry" />
        </mxCell>
        <mxCell id="HV4VPIVPVvyHfTrcEUZD-83" value="Search Results" style="rounded=0;whiteSpace=wrap;html=1;" parent="HV4VPIVPVvyHfTrcEUZD-33" vertex="1">
          <mxGeometry x="1200" y="110" width="120" height="60" as="geometry" />
        </mxCell>
        <mxCell id="HV4VPIVPVvyHfTrcEUZD-85" style="edgeStyle=orthogonalEdgeStyle;rounded=0;orthogonalLoop=1;jettySize=auto;html=1;exitX=1;exitY=0.5;exitDx=0;exitDy=0;entryX=0;entryY=0.5;entryDx=0;entryDy=0;" parent="HV4VPIVPVvyHfTrcEUZD-33" source="HV4VPIVPVvyHfTrcEUZD-84" target="HV4VPIVPVvyHfTrcEUZD-83" edge="1">
          <mxGeometry relative="1" as="geometry" />
        </mxCell>
        <mxCell id="HV4VPIVPVvyHfTrcEUZD-102" value="&lt;div&gt;Any results&lt;/div&gt;&lt;div&gt;found?&lt;br&gt;&lt;/div&gt;" style="rhombus;whiteSpace=wrap;html=1;fillColor=#d5e8d4;strokeColor=#82b366;" parent="HV4VPIVPVvyHfTrcEUZD-33" vertex="1">
          <mxGeometry x="1340" y="100" width="80" height="80" as="geometry" />
        </mxCell>
        <mxCell id="HV4VPIVPVvyHfTrcEUZD-105" value="Yes" style="rounded=0;whiteSpace=wrap;html=1;fillColor=#d5e8d4;strokeColor=#82b366;" parent="1" vertex="1">
          <mxGeometry x="1385" y="430" width="30" height="20" as="geometry" />
        </mxCell>
        <mxCell id="HV4VPIVPVvyHfTrcEUZD-109" style="edgeStyle=orthogonalEdgeStyle;rounded=0;orthogonalLoop=1;jettySize=auto;html=1;exitX=0.5;exitY=0;exitDx=0;exitDy=0;entryX=0.5;entryY=1;entryDx=0;entryDy=0;" parent="1" source="HV4VPIVPVvyHfTrcEUZD-102" target="HV4VPIVPVvyHfTrcEUZD-105" edge="1">
          <mxGeometry relative="1" as="geometry" />
        </mxCell>
        <mxCell id="HV4VPIVPVvyHfTrcEUZD-124" style="edgeStyle=orthogonalEdgeStyle;rounded=0;orthogonalLoop=1;jettySize=auto;html=1;exitX=0.5;exitY=0;exitDx=0;exitDy=0;entryX=0.75;entryY=0;entryDx=0;entryDy=0;" parent="1" source="HV4VPIVPVvyHfTrcEUZD-123" target="HV4VPIVPVvyHfTrcEUZD-19" edge="1">
          <mxGeometry relative="1" as="geometry" />
        </mxCell>
        <mxCell id="HV4VPIVPVvyHfTrcEUZD-123" value="&lt;div&gt;Custom Criteria&lt;/div&gt;&lt;div&gt;&lt;font face=&quot;Lucida Console&quot;&gt;Criterion#register&lt;/font&gt;&lt;br&gt;&lt;/div&gt;" style="rounded=1;whiteSpace=wrap;html=1;fillColor=#f8cecc;strokeColor=#b85450;" parent="1" vertex="1">
          <mxGeometry x="1180" y="50" width="150" height="40" as="geometry" />
        </mxCell>
      </root>
    </mxGraphModel>
  </diagram>
</mxfile>
